<?xml version="1.0" encoding="UTF-8" standalone="no"?>
<svg xmlns:rdf="http://www.w3.org/1999/02/22-rdf-syntax-ns#" xmlns="http://www.w3.org/2000/svg" height="326pt" width="441pt" version="1.1" xmlns:cc="http://creativecommons.org/ns#" xmlns:dc="http://purl.org/dc/elements/1.1/" viewBox="0 0 441 326">
<!-- digraph Workflow {
  node [style=filled];
  Upstream [shape=box];
  Translators [shape=box];
  Git [shape=circle];
  Git -> Upstream [label=send];
  Upstream -> Git [label=fetch];
  Translators -> Upstream [style=dotted label="Too much to do"];
  Crowdin -> Git [label=export];
  Forks -> Git [label=PR];
  Git -> Forks [label=fork];
  Git -> Crowdin [label=update];
  Translators -> Suggestions [label=Web];
  Translators -> Forks [label=Git];
  Git -> Fuzzy [label=zhconv];
  Fuzzy -> Git [label=review];
  Suggestions -> Crowdin [label=review];
  { rank=same; Fuzzy Suggestions Forks }
  { rank=same; Translators Upstream }
} -->
	<style type="text/css" ><![CDATA[text { stroke-width: 0; }]]></style>
	<g transform="translate(4 322)" class="graph" style="text-anchor:middle;font-family:sans-serif;font-size:14px;stroke:black">
		<title>AOSC-Dev/translations Workflow</title>
		<g>
			<polygon points="324.3 -318 253.7 -318 253.7 -282 324.3 -282" fill="#d3d3d3"/>
			<text y="-295.8" x="289">Upstream</text>
		</g>
		<g>
			<ellipse cy="-204" rx="23.06" ry="23.25" cx="248" fill="#d3d3d3"/>
			<text y="-199.8" x="248">Git</text>
		</g>
		<g>
			<path d="m255.8-281.9c-6.4 4.9-12.1 10.8-15.8 17.9-4.4 8.6-4.5 18.7-2.9 28.2" fill="none"/>
			<polygon points="240.5 -236.5 239.4 -226 233.7 -234.9"/>
			<text y="-257.71" x="214.2">fetch</text>
		</g>
		<g>
			<polygon points="116.2 -318 37.77 -318 37.77 -282 116.2 -282" fill="#d3d3d3"/>
			<text y="-295.8" x="77">Translators</text>
		</g>
		<g>
			<path stroke-dasharray="1,5" d="m116.4-300h127.1" fill="none"/>
			<polygon points="243.7 -303.5 253.7 -300 243.7 -296.5"/>
			<text y="-307.2" x="184.894">Too much to do</text>
		</g>
		<g>
			<ellipse cy="-108" rx="33.05" ry="18" cx="166" fill="#d3d3d3"/>
			<text y="-103.8" x="166">Forks</text>
		</g>
		<g>
			<path d="m85.06-281.8c15.64 33.4 50.24 107.4 68.74 146.8" fill="none"/>
			<polygon points="157.1 -136.3 158.2 -125.7 150.7 -133.3"/>
			<text y="-200.49118" x="131.26749">Git</text>
		</g>
		<g>
			<ellipse cy="-108" rx="57.57" ry="18" cx="57" fill="#d3d3d3"/>
			<text y="-103.8" x="57">Suggestions</text>
		</g>
		<g>
			<path fill="none" d="m75.19-281.8c-3.49 33.1-11.16 106.1-15.34 145.8"/>
			<polygon points="63.32 -135.6 58.79 -126 56.36 -136.3"/>
			<text y="-195" x="45">Web</text>
		</g>
		<g>
			<path fill="none" d="m260.4-224.1c4-6.8 8.3-14.5 11.6-21.9 3.7-8.3 7-17.6 9.6-26.1"/>
			<polygon points="278.3 -273.4 284.6 -281.9 285.1 -271.4"/>
			<text y="-245" x="299">send</text>
		</g>
		<g>
			<ellipse rx="44.25" ry="18" cy="-18" cx="354" fill="#d3d3d3"/>
			<text y="-13.8" x="354">Crowdin</text>
		</g>
		<g>
			<path d="m270.8-199c34 7.5 96.5 27.1 119.2 73 13.3 27-2.3 60.12-16.9 82.3" fill="none"/>
			<polygon points="375.9 -41.71 367.4 -35.49 370.2 -45.7"/>
			<text y="-41" x="406">update</text>
		</g>
		<g>
			<path d="m225.7-197.5c-18 5.7-42.4 16.5-55 35.5-5 7.4-6.8 16.8-7.3 25.6" fill="none"/>
			<polygon points="166.9 -136.2 163.5 -126.1 159.9 -136.1"/>
			<text y="-139.12349" x="179.89629">fork</text>
		</g>
		<g>
			<ellipse cy="-108" rx="34.45" ry="18" cx="268" fill="#d3d3d3"/>
			<text y="-103.8" x="268">Fuzzy</text>
		</g>
		<g>
			<path d="m239.6-182c-3.3 11.5-5.5 25.8-1 38 1.5 4.3 3.9 8.5 6.6 12.3" fill="none"/>
			<polygon points="248 -133.8 251.6 -123.8 242.6 -129.4"/>
			<text y="-119.77048" x="219.81778">zhconv</text>
		</g>
		<g>
			<path d="m354.7-36.27c0.2-28.92-3.3-87.73-31.7-125.7-10.7-14.3-28-24.3-43.2-30.8" fill="none"/>
			<polygon points="278.1 -189.6 270.1 -196.5 280.7 -196.1"/>
			<text y="-91.358772" x="326.02991">export</text>
		</g>
		<g>
			<path d="m179.6-124.6c12.6-14.5 31.7-36.3 46.5-53.3" fill="none"/>
			<polygon points="223.7 -180.5 233 -185.8 229 -175.9"/>
			<text y="-173.68245" x="210.88348">PR</text>
		</g>
		<g>
			<path d="m97.36-95.04l212 62.82" fill="none"/>
			<polygon points="310.7 -35.49 319.3 -29.29 308.7 -28.78"/>
			<text y="-58.8" x="252.044">review</text>
		</g>
		<g>
			<path d="m276-126c3.9-10.5 6.9-24.2 3-36-2-5.9-5.1-11.5-8.7-16.7" fill="none"/>
			<polygon points="267.3 -176.8 264 -186.9 272.9 -181.1"/>
			<text y="-143.96175" x="305.57346">review</text>
		</g>
	</g>
</svg>
